STARTFONT 2.1
FONT -Adobe-ITC Avant Garde Gothic-Demi-O-Normal--8-80-75-75-P-51-ISO8859-1
SIZE 8 75 75
FONTBOUNDINGBOX 19 11 -2 -2

STARTPROPERTIES 25
FONTNAME_REGISTRY ""
FAMILY_NAME "ITC Avant Garde Gothic"
FOUNDRY "Adobe"
WEIGHT_NAME "Demi"
SLANT "O"
SETWIDTH_NAME "Normal"
ADD_STYLE_NAME ""
PIXEL_SIZE 8
POINT_SIZE 80
RESOLUTION_X 75
RESOLUTION_Y 75
SPACING "P"
AVERAGE_WIDTH 51
CHARSET_REGISTRY "ISO8859"
CHARSET_ENCODING "1"
CHARSET_COLLECTIONS "ASCII ISO8859-1 ADOBE-STANDARD"
FULL_NAME "ITC Avant Garde Gothic Demi Oblique"
COPYRIGHT "Copyright (c) 1985,1987 Adobe Systems, Inc., Portions Copyright 1988 Digital Equipment Corp."
CAP_HEIGHT 6
X_HEIGHT 5
WEIGHT 10
QUAD_WIDTH 6
DEFAULT_CHAR 32
FONT_DESCENT 2
FONT_ASCENT 8
ENDPROPERTIES

CHARS 190

STARTCHAR space
ENCODING 32
SWIDTH 280 0
DWIDTH 2 0
BBX 1 1 0 0
BITMAP
00
ENDCHAR

STARTCHAR exclam
ENCODING 33
SWIDTH 280 0
DWIDTH 3 0
BBX 3 6 0 0
BITMAP
60
60
40
40
00
80
ENDCHAR

STARTCHAR quotedbl
ENCODING 34
SWIDTH 360 0
DWIDTH 3 0
BBX 3 2 1 4
BITMAP
A0
A0
ENDCHAR

STARTCHAR numbersign
ENCODING 35
SWIDTH 600 0
DWIDTH 5 0
BBX 5 6 0 0
BITMAP
28
F8
50
F8
A0
A0
ENDCHAR

STARTCHAR dollar
ENCODING 36
SWIDTH 560 0
DWIDTH 5 0
BBX 5 8 0 -1
BITMAP
10
30
78
60
30
F0
60
40
ENDCHAR

STARTCHAR percent
ENCODING 37
SWIDTH 860 0
DWIDTH 10 0
BBX 8 6 1 0
BITMAP
32
54
DB
6D
1D
26
ENDCHAR

STARTCHAR ampersand
ENCODING 38
SWIDTH 680 0
DWIDTH 7 0
BBX 6 6 0 0
BITMAP
30
68
70
FC
D8
7C
ENDCHAR

STARTCHAR quoteright
ENCODING 39
SWIDTH 280 0
DWIDTH 2 0
BBX 2 3 0 3
BITMAP
40
40
80
ENDCHAR

STARTCHAR parenleft
ENCODING 40
SWIDTH 380 0
DWIDTH 4 0
BBX 4 8 0 -2
BITMAP
10
60
60
C0
C0
C0
40
20
ENDCHAR

STARTCHAR parenright
ENCODING 41
SWIDTH 380 0
DWIDTH 4 0
BBX 4 8 0 -2
BITMAP
40
20
30
30
30
60
60
80
ENDCHAR

STARTCHAR asterisk
ENCODING 42
SWIDTH 440 0
DWIDTH 6 0
BBX 4 3 1 3
BITMAP
60
F0
60
ENDCHAR

STARTCHAR plus
ENCODING 43
SWIDTH 600 0
DWIDTH 5 0
BBX 5 5 0 0
BITMAP
20
20
F8
20
20
ENDCHAR

STARTCHAR comma
ENCODING 44
SWIDTH 280 0
DWIDTH 2 0
BBX 2 3 -1 -1
BITMAP
40
40
80
ENDCHAR

STARTCHAR minus
ENCODING 45
SWIDTH 600 0
DWIDTH 5 0
BBX 4 1 0 2
BITMAP
F0
ENDCHAR

STARTCHAR period
ENCODING 46
SWIDTH 280 0
DWIDTH 2 0
BBX 1 2 0 0
BITMAP
80
80
ENDCHAR

STARTCHAR slash
ENCODING 47
SWIDTH 460 0
DWIDTH 3 0
BBX 3 6 0 0
BITMAP
20
20
20
40
80
80
ENDCHAR

STARTCHAR zero
ENCODING 48
SWIDTH 560 0
DWIDTH 5 0
BBX 5 6 0 0
BITMAP
30
68
68
D8
D0
60
ENDCHAR

STARTCHAR one
ENCODING 49
SWIDTH 560 0
DWIDTH 5 0
BBX 3 6 1 0
BITMAP
E0
60
60
C0
C0
C0
ENDCHAR

STARTCHAR two
ENCODING 50
SWIDTH 560 0
DWIDTH 5 0
BBX 5 6 0 0
BITMAP
70
58
30
60
F0
F0
ENDCHAR

STARTCHAR three
ENCODING 51
SWIDTH 560 0
DWIDTH 5 0
BBX 5 6 0 0
BITMAP
70
18
70
30
F0
60
ENDCHAR

STARTCHAR four
ENCODING 52
SWIDTH 560 0
DWIDTH 5 0
BBX 5 6 0 0
BITMAP
18
38
68
F8
30
30
ENDCHAR

STARTCHAR five
ENCODING 53
SWIDTH 560 0
DWIDTH 5 0
BBX 5 6 0 0
BITMAP
38
60
70
30
F0
60
ENDCHAR

STARTCHAR six
ENCODING 54
SWIDTH 560 0
DWIDTH 5 0
BBX 5 6 0 0
BITMAP
38
60
70
D0
F0
60
ENDCHAR

STARTCHAR seven
ENCODING 55
SWIDTH 560 0
DWIDTH 5 0
BBX 4 6 1 0
BITMAP
F0
F0
20
40
C0
C0
ENDCHAR

STARTCHAR eight
ENCODING 56
SWIDTH 560 0
DWIDTH 5 0
BBX 5 6 0 0
BITMAP
38
68
70
F0
B0
60
ENDCHAR

STARTCHAR nine
ENCODING 57
SWIDTH 560 0
DWIDTH 5 0
BBX 5 6 0 0
BITMAP
38
68
78
38
30
E0
ENDCHAR

STARTCHAR colon
ENCODING 58
SWIDTH 280 0
DWIDTH 2 0
BBX 2 5 0 0
BITMAP
40
40
00
80
80
ENDCHAR

STARTCHAR semicolon
ENCODING 59
SWIDTH 280 0
DWIDTH 2 0
BBX 3 6 -1 -1
BITMAP
20
20
00
40
40
80
ENDCHAR

STARTCHAR less
ENCODING 60
SWIDTH 600 0
DWIDTH 5 0
BBX 4 6 0 0
BITMAP
10
30
60
C0
60
20
ENDCHAR

STARTCHAR equal
ENCODING 61
SWIDTH 600 0
DWIDTH 5 0
BBX 5 3 0 1
BITMAP
78
00
F0
ENDCHAR

STARTCHAR greater
ENCODING 62
SWIDTH 600 0
DWIDTH 5 0
BBX 4 6 1 0
BITMAP
C0
60
30
60
C0
80
ENDCHAR

STARTCHAR question
ENCODING 63
SWIDTH 560 0
DWIDTH 5 0
BBX 4 6 1 0
BITMAP
E0
30
60
40
00
80
ENDCHAR

STARTCHAR at
ENCODING 64
SWIDTH 740 0
DWIDTH 6 0
BBX 7 7 0 0
BITMAP
7C
C6
9A
AA
BC
C0
78
ENDCHAR

STARTCHAR A
ENCODING 65
SWIDTH 740 0
DWIDTH 5 0
BBX 6 6 -1 0
BITMAP
18
18
28
7C
CC
CC
ENDCHAR

STARTCHAR B
ENCODING 66
SWIDTH 580 0
DWIDTH 6 0
BBX 5 6 1 0
BITMAP
78
68
70
D8
F0
E0
ENDCHAR

STARTCHAR C
ENCODING 67
SWIDTH 780 0
DWIDTH 6 0
BBX 6 6 0 0
BITMAP
3C
6C
C0
D8
F8
60
ENDCHAR

STARTCHAR D
ENCODING 68
SWIDTH 700 0
DWIDTH 6 0
BBX 6 6 0 0
BITMAP
78
6C
4C
DC
F8
E0
ENDCHAR

STARTCHAR E
ENCODING 69
SWIDTH 520 0
DWIDTH 5 0
BBX 4 6 1 0
BITMAP
70
60
70
C0
C0
E0
ENDCHAR

STARTCHAR F
ENCODING 70
SWIDTH 480 0
DWIDTH 4 0
BBX 4 6 0 0
BITMAP
70
60
60
F0
C0
C0
ENDCHAR

STARTCHAR G
ENCODING 71
SWIDTH 840 0
DWIDTH 6 0
BBX 6 6 0 0
BITMAP
3C
6C
C0
F8
D8
70
ENDCHAR

STARTCHAR H
ENCODING 72
SWIDTH 680 0
DWIDTH 6 0
BBX 6 6 0 0
BITMAP
6C
6C
7C
D8
D8
D8
ENDCHAR

STARTCHAR I
ENCODING 73
SWIDTH 280 0
DWIDTH 3 0
BBX 3 6 0 0
BITMAP
60
60
60
C0
C0
C0
ENDCHAR

STARTCHAR J
ENCODING 74
SWIDTH 480 0
DWIDTH 5 0
BBX 5 6 0 0
BITMAP
18
18
18
D0
F0
60
ENDCHAR

STARTCHAR K
ENCODING 75
SWIDTH 620 0
DWIDTH 6 0
BBX 6 6 0 0
BITMAP
6C
68
70
F0
D8
D8
ENDCHAR

STARTCHAR L
ENCODING 76
SWIDTH 440 0
DWIDTH 4 0
BBX 3 6 0 0
BITMAP
60
60
60
C0
E0
E0
ENDCHAR

STARTCHAR M
ENCODING 77
SWIDTH 900 0
DWIDTH 7 0
BBX 7 6 0 0
BITMAP
66
66
6E
FC
D4
D4
ENDCHAR

STARTCHAR N
ENCODING 78
SWIDTH 740 0
DWIDTH 6 0
BBX 6 6 0 0
BITMAP
4C
6C
7C
F8
D8
C8
ENDCHAR

STARTCHAR O
ENCODING 79
SWIDTH 840 0
DWIDTH 6 0
BBX 6 6 0 0
BITMAP
38
6C
CC
DC
F8
60
ENDCHAR

STARTCHAR P
ENCODING 80
SWIDTH 560 0
DWIDTH 6 0
BBX 5 6 1 0
BITMAP
78
68
78
F0
C0
C0
ENDCHAR

STARTCHAR Q
ENCODING 81
SWIDTH 840 0
DWIDTH 6 0
BBX 6 6 0 0
BITMAP
38
6C
CC
EC
D8
6C
ENDCHAR

STARTCHAR R
ENCODING 82
SWIDTH 580 0
DWIDTH 6 0
BBX 5 6 0 0
BITMAP
78
68
78
F0
D8
D8
ENDCHAR

STARTCHAR S
ENCODING 83
SWIDTH 520 0
DWIDTH 3 0
BBX 4 6 0 0
BITMAP
70
C0
E0
70
E0
C0
ENDCHAR

STARTCHAR T
ENCODING 84
SWIDTH 420 0
DWIDTH 3 0
BBX 4 6 0 0
BITMAP
F0
60
60
C0
C0
C0
ENDCHAR

STARTCHAR U
ENCODING 85
SWIDTH 640 0
DWIDTH 6 0
BBX 6 6 0 0
BITMAP
6C
6C
6C
D8
F0
70
ENDCHAR

STARTCHAR V
ENCODING 86
SWIDTH 700 0
DWIDTH 5 0
BBX 5 6 0 0
BITMAP
D8
D8
D8
70
60
40
ENDCHAR

STARTCHAR W
ENCODING 87
SWIDTH 900 0
DWIDTH 8 0
BBX 8 6 0 0
BITMAP
CB
DB
DA
6C
6C
48
ENDCHAR

STARTCHAR X
ENCODING 88
SWIDTH 680 0
DWIDTH 6 0
BBX 6 6 0 0
BITMAP
6C
78
30
70
D8
D8
ENDCHAR

STARTCHAR Y
ENCODING 89
SWIDTH 620 0
DWIDTH 5 0
BBX 6 6 0 0
BITMAP
DC
D8
70
60
60
60
ENDCHAR

STARTCHAR Z
ENCODING 90
SWIDTH 500 0
DWIDTH 5 0
BBX 4 6 0 0
BITMAP
70
70
20
40
F0
F0
ENDCHAR

STARTCHAR bracketleft
ENCODING 91
SWIDTH 320 0
DWIDTH 4 0
BBX 4 8 0 -2
BITMAP
30
20
60
60
60
C0
C0
E0
ENDCHAR

STARTCHAR backslash
ENCODING 92
SWIDTH 640 0
DWIDTH 5 0
BBX 3 6 1 0
BITMAP
80
40
40
20
20
20
ENDCHAR

STARTCHAR bracketright
ENCODING 93
SWIDTH 320 0
DWIDTH 4 0
BBX 4 8 0 -2
BITMAP
70
30
30
60
60
60
40
C0
ENDCHAR

STARTCHAR asciicircum
ENCODING 94
SWIDTH 600 0
DWIDTH 5 0
BBX 4 4 0 2
BITMAP
20
20
50
D0
ENDCHAR

STARTCHAR underscore
ENCODING 95
SWIDTH 500 0
DWIDTH 4 0
BBX 4 1 -1 -1
BITMAP
F0
ENDCHAR

STARTCHAR quoteleft
ENCODING 96
SWIDTH 280 0
DWIDTH 2 0
BBX 2 3 0 3
BITMAP
80
80
40
ENDCHAR

STARTCHAR a
ENCODING 97
SWIDTH 660 0
DWIDTH 6 0
BBX 6 5 0 0
BITMAP
3C
6C
CC
F8
68
ENDCHAR

STARTCHAR b
ENCODING 98
SWIDTH 660 0
DWIDTH 6 0
BBX 6 7 0 0
BITMAP
20
20
78
6C
CC
D8
F0
ENDCHAR

STARTCHAR c
ENCODING 99
SWIDTH 640 0
DWIDTH 5 0
BBX 5 5 0 0
BITMAP
30
78
C0
F0
60
ENDCHAR

STARTCHAR d
ENCODING 100
SWIDTH 660 0
DWIDTH 6 0
BBX 6 7 0 0
BITMAP
04
0C
3C
4C
D8
F8
68
ENDCHAR

STARTCHAR e
ENCODING 101
SWIDTH 640 0
DWIDTH 5 0
BBX 5 5 0 0
BITMAP
30
68
F8
C0
70
ENDCHAR

STARTCHAR f
ENCODING 102
SWIDTH 280 0
DWIDTH 2 0
BBX 4 7 0 0
BITMAP
30
60
E0
40
40
C0
C0
ENDCHAR

STARTCHAR g
ENCODING 103
SWIDTH 660 0
DWIDTH 6 0
BBX 6 6 0 -1
BITMAP
3C
6C
DC
78
18
70
ENDCHAR

STARTCHAR h
ENCODING 104
SWIDTH 600 0
DWIDTH 5 0
BBX 5 7 0 0
BITMAP
20
20
70
68
D8
D8
D0
ENDCHAR

STARTCHAR i
ENCODING 105
SWIDTH 240 0
DWIDTH 2 0
BBX 3 7 0 0
BITMAP
20
00
40
40
C0
80
80
ENDCHAR

STARTCHAR j
ENCODING 106
SWIDTH 260 0
DWIDTH 2 0
BBX 3 9 -1 -2
BITMAP
20
00
20
20
60
40
40
40
80
ENDCHAR

STARTCHAR k
ENCODING 107
SWIDTH 580 0
DWIDTH 5 0
BBX 5 7 0 0
BITMAP
20
20
68
70
E0
F0
D8
ENDCHAR

STARTCHAR l
ENCODING 108
SWIDTH 240 0
DWIDTH 2 0
BBX 2 7 0 0
BITMAP
40
40
40
C0
80
80
80
ENDCHAR

STARTCHAR m
ENCODING 109
SWIDTH 940 0
DWIDTH 7 0
BBX 6 5 1 0
BITMAP
A8
FC
D4
AC
A8
ENDCHAR

STARTCHAR n
ENCODING 110
SWIDTH 600 0
DWIDTH 5 0
BBX 5 5 0 0
BITMAP
58
78
C8
D8
D0
ENDCHAR

STARTCHAR o
ENCODING 111
SWIDTH 640 0
DWIDTH 6 0
BBX 6 5 0 0
BITMAP
38
6C
CC
D8
70
ENDCHAR

STARTCHAR p
ENCODING 112
SWIDTH 660 0
DWIDTH 6 0
BBX 6 7 0 -2
BITMAP
78
6C
6C
D8
F0
C0
80
ENDCHAR

STARTCHAR q
ENCODING 113
SWIDTH 660 0
DWIDTH 6 0
BBX 6 7 0 -2
BITMAP
3C
6C
CC
F8
78
10
10
ENDCHAR

STARTCHAR r
ENCODING 114
SWIDTH 320 0
DWIDTH 4 0
BBX 4 5 0 0
BITMAP
50
70
E0
C0
C0
ENDCHAR

STARTCHAR s
ENCODING 115
SWIDTH 440 0
DWIDTH 4 0
BBX 5 5 -1 0
BITMAP
38
60
30
30
E0
ENDCHAR

STARTCHAR t
ENCODING 116
SWIDTH 300 0
DWIDTH 2 0
BBX 3 7 0 0
BITMAP
20
60
E0
40
C0
80
80
ENDCHAR

STARTCHAR u
ENCODING 117
SWIDTH 600 0
DWIDTH 5 0
BBX 6 5 0 0
BITMAP
6C
6C
D8
D0
70
ENDCHAR

STARTCHAR v
ENCODING 118
SWIDTH 560 0
DWIDTH 5 0
BBX 4 5 1 0
BITMAP
D0
D0
D0
60
40
ENDCHAR

STARTCHAR w
ENCODING 119
SWIDTH 800 0
DWIDTH 7 0
BBX 7 5 1 0
BITMAP
D6
D6
D4
78
50
ENDCHAR

STARTCHAR x
ENCODING 120
SWIDTH 560 0
DWIDTH 6 0
BBX 6 5 0 0
BITMAP
6C
38
30
78
D8
ENDCHAR

STARTCHAR y
ENCODING 121
SWIDTH 580 0
DWIDTH 5 0
BBX 5 7 0 -2
BITMAP
D8
D8
D0
60
60
40
80
ENDCHAR

STARTCHAR z
ENCODING 122
SWIDTH 460 0
DWIDTH 4 0
BBX 4 5 0 0
BITMAP
70
30
60
C0
E0
ENDCHAR

STARTCHAR braceleft
ENCODING 123
SWIDTH 340 0
DWIDTH 5 0
BBX 5 8 0 -2
BITMAP
18
30
30
C0
60
60
40
20
ENDCHAR

STARTCHAR bar
ENCODING 124
SWIDTH 600 0
DWIDTH 5 0
BBX 2 6 2 0
BITMAP
40
40
40
80
80
80
ENDCHAR

STARTCHAR braceright
ENCODING 125
SWIDTH 340 0
DWIDTH 5 0
BBX 5 8 0 -2
BITMAP
20
10
30
30
18
60
60
C0
ENDCHAR

STARTCHAR asciitilde
ENCODING 126
SWIDTH 600 0
DWIDTH 6 0
BBX 5 2 0 2
BITMAP
68
B0
ENDCHAR

STARTCHAR exclamdown
ENCODING 161
SWIDTH 280 0
DWIDTH 3 0
BBX 3 6 0 -1
BITMAP
20
00
40
40
C0
C0
ENDCHAR

STARTCHAR cent
ENCODING 162
SWIDTH 560 0
DWIDTH 5 0
BBX 5 6 0 0
BITMAP
10
78
C0
D8
F0
20
ENDCHAR

STARTCHAR sterling
ENCODING 163
SWIDTH 560 0
DWIDTH 5 0
BBX 5 6 0 0
BITMAP
38
60
F0
60
58
F0
ENDCHAR

STARTCHAR currency
ENCODING 164
SWIDTH 600 0
DWIDTH 7 0
BBX 7 5 0 0
BITMAP
66
38
48
70
D8
ENDCHAR

STARTCHAR yen
ENCODING 165
SWIDTH 560 0
DWIDTH 6 0
BBX 6 6 0 0
BITMAP
6C
68
FC
30
F8
20
ENDCHAR

STARTCHAR brokenbar
ENCODING 166
SWIDTH 600 0
DWIDTH 5 0
BBX 2 6 2 0
BITMAP
40
40
00
80
80
80
ENDCHAR

STARTCHAR section
ENCODING 167
SWIDTH 560 0
DWIDTH 5 0
BBX 5 7 0 -1
BITMAP
38
68
70
68
38
D0
60
ENDCHAR

STARTCHAR dieresis
ENCODING 168
SWIDTH 500 0
DWIDTH 6 0
BBX 3 2 2 4
BITMAP
A0
A0
ENDCHAR

STARTCHAR copyright
ENCODING 169
SWIDTH 740 0
DWIDTH 8 0
BBX 7 7 1 0
BITMAP
3C
46
9A
A2
BA
C4
78
ENDCHAR

STARTCHAR ordfeminine
ENCODING 170
SWIDTH 360 0
DWIDTH 4 0
BBX 3 5 1 1
BITMAP
60
A0
E0
00
E0
ENDCHAR

STARTCHAR guillemotleft
ENCODING 171
SWIDTH 460 0
DWIDTH 6 0
BBX 4 4 1 1
BITMAP
50
F0
A0
50
ENDCHAR

STARTCHAR logicalnot
ENCODING 172
SWIDTH 600 0
DWIDTH 5 0
BBX 4 2 0 2
BITMAP
F0
10
ENDCHAR

STARTCHAR hyphen
ENCODING 173
SWIDTH 420 0
DWIDTH 3 0
BBX 3 1 0 2
BITMAP
E0
ENDCHAR

STARTCHAR registered
ENCODING 174
SWIDTH 740 0
DWIDTH 8 0
BBX 7 7 1 0
BITMAP
3C
46
BA
B2
AA
C4
78
ENDCHAR

STARTCHAR macron
ENCODING 175
SWIDTH 420 0
DWIDTH 4 0
BBX 3 1 1 4
BITMAP
E0
ENDCHAR

STARTCHAR degree
ENCODING 176
SWIDTH 400 0
DWIDTH 3 0
BBX 3 3 1 3
BITMAP
60
A0
C0
ENDCHAR

STARTCHAR plusminus
ENCODING 177
SWIDTH 600 0
DWIDTH 5 0
BBX 5 5 0 0
BITMAP
20
F8
20
00
F0
ENDCHAR

STARTCHAR twosuperior
ENCODING 178
SWIDTH 336 0
DWIDTH 2 0
BBX 3 4 0 2
BITMAP
E0
60
C0
E0
ENDCHAR

STARTCHAR threesuperior
ENCODING 179
SWIDTH 336 0
DWIDTH 2 0
BBX 3 4 0 2
BITMAP
E0
60
60
C0
ENDCHAR

STARTCHAR acute
ENCODING 180
SWIDTH 420 0
DWIDTH 4 0
BBX 3 2 1 4
BITMAP
60
C0
ENDCHAR

STARTCHAR mu
ENCODING 181
SWIDTH 576 0
DWIDTH 5 0
BBX 6 7 0 -2
BITMAP
6C
6C
58
D0
F0
80
80
ENDCHAR

STARTCHAR paragraph
ENCODING 182
SWIDTH 600 0
DWIDTH 6 0
BBX 5 7 1 -1
BITMAP
78
E8
E8
50
50
A0
A0
ENDCHAR

STARTCHAR periodcentered
ENCODING 183
SWIDTH 280 0
DWIDTH 2 0
BBX 1 2 1 2
BITMAP
80
80
ENDCHAR

STARTCHAR cedilla
ENCODING 184
SWIDTH 340 0
DWIDTH 3 0
BBX 3 3 -1 -2
BITMAP
40
60
C0
ENDCHAR

STARTCHAR onesuperior
ENCODING 185
SWIDTH 336 0
DWIDTH 2 0
BBX 3 4 0 2
BITMAP
E0
60
C0
C0
ENDCHAR

STARTCHAR ordmasculine
ENCODING 186
SWIDTH 360 0
DWIDTH 4 0
BBX 3 4 1 2
BITMAP
E0
20
E0
E0
ENDCHAR

STARTCHAR guillemotright
ENCODING 187
SWIDTH 460 0
DWIDTH 6 0
BBX 4 4 1 1
BITMAP
A0
F0
50
A0
ENDCHAR

STARTCHAR onequarter
ENCODING 188
SWIDTH 840 0
DWIDTH 7 0
BBX 7 6 0 0
BITMAP
E4
68
D4
EC
5E
8C
ENDCHAR

STARTCHAR onehalf
ENCODING 189
SWIDTH 840 0
DWIDTH 7 0
BBX 7 6 0 0
BITMAP
E4
68
DE
D6
2C
4E
ENDCHAR

STARTCHAR threequarters
ENCODING 190
SWIDTH 840 0
DWIDTH 7 0
BBX 8 6 0 0
BITMAP
E2
64
6A
D6
2F
46
ENDCHAR

STARTCHAR questiondown
ENCODING 191
SWIDTH 560 0
DWIDTH 5 0
BBX 3 6 1 -1
BITMAP
20
00
40
C0
80
E0
ENDCHAR

STARTCHAR Agrave
ENCODING 192
SWIDTH 740 0
DWIDTH 5 0
BBX 6 9 -1 0
BITMAP
30
18
00
18
18
28
7C
CC
CC
ENDCHAR

STARTCHAR Aacute
ENCODING 193
SWIDTH 740 0
DWIDTH 5 0
BBX 6 9 -1 0
BITMAP
0C
18
00
18
18
28
7C
CC
CC
ENDCHAR

STARTCHAR Acircumflex
ENCODING 194
SWIDTH 740 0
DWIDTH 5 0
BBX 6 9 -1 0
BITMAP
08
1C
00
18
18
28
7C
CC
CC
ENDCHAR

STARTCHAR Atilde
ENCODING 195
SWIDTH 740 0
DWIDTH 5 0
BBX 7 9 -1 0
BITMAP
0A
1C
00
18
18
28
7C
CC
CC
ENDCHAR

STARTCHAR Adieresis
ENCODING 196
SWIDTH 740 0
DWIDTH 5 0
BBX 6 9 -1 0
BITMAP
14
14
00
18
18
28
7C
CC
CC
ENDCHAR

STARTCHAR Aring
ENCODING 197
SWIDTH 740 0
DWIDTH 5 0
BBX 6 9 -1 0
BITMAP
18
24
18
18
18
28
7C
CC
CC
ENDCHAR

STARTCHAR AE
ENCODING 198
SWIDTH 900 0
DWIDTH 8 0
BBX 9 6 -1 0
BITMAP
0F80
0E00
1700
3C00
6C00
CE00
ENDCHAR

STARTCHAR Ccedilla
ENCODING 199
SWIDTH 780 0
DWIDTH 6 0
BBX 6 8 0 -2
BITMAP
3C
6C
C0
D8
F8
60
30
60
ENDCHAR

STARTCHAR Egrave
ENCODING 200
SWIDTH 520 0
DWIDTH 5 0
BBX 4 9 1 0
BITMAP
60
30
00
70
60
70
C0
C0
E0
ENDCHAR

STARTCHAR Eacute
ENCODING 201
SWIDTH 520 0
DWIDTH 5 0
BBX 5 9 1 0
BITMAP
18
30
00
70
60
70
C0
C0
E0
ENDCHAR

STARTCHAR Ecircumflex
ENCODING 202
SWIDTH 520 0
DWIDTH 5 0
BBX 5 9 1 0
BITMAP
10
38
00
70
60
70
C0
C0
E0
ENDCHAR

STARTCHAR Edieresis
ENCODING 203
SWIDTH 520 0
DWIDTH 5 0
BBX 5 9 1 0
BITMAP
28
28
00
70
60
70
C0
C0
E0
ENDCHAR

STARTCHAR Igrave
ENCODING 204
SWIDTH 280 0
DWIDTH 3 0
BBX 3 9 0 0
BITMAP
C0
60
00
60
60
60
C0
C0
C0
ENDCHAR

STARTCHAR Iacute
ENCODING 205
SWIDTH 280 0
DWIDTH 3 0
BBX 4 9 0 0
BITMAP
30
60
00
60
60
60
C0
C0
C0
ENDCHAR

STARTCHAR Icircumflex
ENCODING 206
SWIDTH 280 0
DWIDTH 3 0
BBX 4 9 0 0
BITMAP
20
70
00
60
60
60
C0
C0
C0
ENDCHAR

STARTCHAR Idieresis
ENCODING 207
SWIDTH 280 0
DWIDTH 3 0
BBX 4 9 0 0
BITMAP
50
50
00
60
60
60
C0
C0
C0
ENDCHAR

STARTCHAR Eth
ENCODING 208
SWIDTH 742 0
DWIDTH 6 0
BBX 6 6 0 0
BITMAP
78
4C
EC
DC
F8
F0
ENDCHAR

STARTCHAR Ntilde
ENCODING 209
SWIDTH 740 0
DWIDTH 6 0
BBX 6 9 0 0
BITMAP
14
38
00
4C
6C
7C
F8
D8
C8
ENDCHAR

STARTCHAR Ograve
ENCODING 210
SWIDTH 840 0
DWIDTH 6 0
BBX 6 9 0 0
BITMAP
30
18
00
38
6C
CC
DC
F8
60
ENDCHAR

STARTCHAR Oacute
ENCODING 211
SWIDTH 840 0
DWIDTH 6 0
BBX 6 9 0 0
BITMAP
0C
18
00
38
6C
CC
DC
F8
60
ENDCHAR

STARTCHAR Ocircumflex
ENCODING 212
SWIDTH 840 0
DWIDTH 6 0
BBX 6 9 0 0
BITMAP
08
1C
00
38
6C
CC
DC
F8
60
ENDCHAR

STARTCHAR Otilde
ENCODING 213
SWIDTH 840 0
DWIDTH 6 0
BBX 6 9 0 0
BITMAP
14
38
00
38
6C
CC
DC
F8
60
ENDCHAR

STARTCHAR Odieresis
ENCODING 214
SWIDTH 840 0
DWIDTH 6 0
BBX 6 9 0 0
BITMAP
14
14
00
38
6C
CC
DC
F8
60
ENDCHAR

STARTCHAR multiply
ENCODING 215
SWIDTH 600 0
DWIDTH 5 0
BBX 5 4 0 1
BITMAP
48
30
60
90
ENDCHAR

STARTCHAR Oslash
ENCODING 216
SWIDTH 840 0
DWIDTH 6 0
BBX 6 8 0 -1
BITMAP
04
3C
6C
CC
DC
F8
E0
80
ENDCHAR

STARTCHAR Ugrave
ENCODING 217
SWIDTH 640 0
DWIDTH 6 0
BBX 6 9 0 0
BITMAP
30
18
00
6C
6C
6C
D8
F0
70
ENDCHAR

STARTCHAR Uacute
ENCODING 218
SWIDTH 640 0
DWIDTH 6 0
BBX 6 9 0 0
BITMAP
0C
18
00
6C
6C
6C
D8
F0
70
ENDCHAR

STARTCHAR Ucircumflex
ENCODING 219
SWIDTH 640 0
DWIDTH 6 0
BBX 6 9 0 0
BITMAP
10
38
00
6C
6C
6C
D8
F0
70
ENDCHAR

STARTCHAR Udieresis
ENCODING 220
SWIDTH 640 0
DWIDTH 6 0
BBX 6 9 0 0
BITMAP
28
28
00
6C
6C
6C
D8
F0
70
ENDCHAR

STARTCHAR Yacute
ENCODING 221
SWIDTH 620 0
DWIDTH 5 0
BBX 6 9 0 0
BITMAP
18
30
00
DC
D8
70
60
60
60
ENDCHAR

STARTCHAR Thorn
ENCODING 222
SWIDTH 560 0
DWIDTH 6 0
BBX 5 6 1 0
BITMAP
70
68
68
F0
E0
C0
ENDCHAR

STARTCHAR germandbls
ENCODING 223
SWIDTH 600 0
DWIDTH 5 0
BBX 5 6 0 0
BITMAP
70
68
70
D8
D8
B0
ENDCHAR

STARTCHAR agrave
ENCODING 224
SWIDTH 660 0
DWIDTH 6 0
BBX 6 8 0 0
BITMAP
30
18
00
3C
6C
CC
F8
68
ENDCHAR

STARTCHAR aacute
ENCODING 225
SWIDTH 660 0
DWIDTH 6 0
BBX 6 8 0 0
BITMAP
0C
18
00
3C
6C
CC
F8
68
ENDCHAR

STARTCHAR acircumflex
ENCODING 226
SWIDTH 660 0
DWIDTH 6 0
BBX 6 8 0 0
BITMAP
08
1C
00
3C
6C
CC
F8
68
ENDCHAR

STARTCHAR atilde
ENCODING 227
SWIDTH 660 0
DWIDTH 6 0
BBX 6 8 0 0
BITMAP
14
38
00
3C
6C
CC
F8
68
ENDCHAR

STARTCHAR adieresis
ENCODING 228
SWIDTH 660 0
DWIDTH 6 0
BBX 6 8 0 0
BITMAP
14
14
00
3C
6C
CC
F8
68
ENDCHAR

STARTCHAR aring
ENCODING 229
SWIDTH 660 0
DWIDTH 6 0
BBX 7 8 0 0
BITMAP
0C
12
0C
3C
6C
CC
F8
68
ENDCHAR

STARTCHAR ae
ENCODING 230
SWIDTH 1080 0
DWIDTH 9 0
BBX 9 5 0 0
BITMAP
3F00
6D80
CF80
FC00
7700
ENDCHAR

STARTCHAR ccedilla
ENCODING 231
SWIDTH 640 0
DWIDTH 5 0
BBX 5 7 0 -2
BITMAP
30
78
C0
D0
60
60
C0
ENDCHAR

STARTCHAR egrave
ENCODING 232
SWIDTH 640 0
DWIDTH 5 0
BBX 5 8 0 0
BITMAP
60
30
00
30
68
F8
C0
70
ENDCHAR

STARTCHAR eacute
ENCODING 233
SWIDTH 640 0
DWIDTH 5 0
BBX 6 8 0 0
BITMAP
0C
18
00
30
68
F8
C0
70
ENDCHAR

STARTCHAR ecircumflex
ENCODING 234
SWIDTH 640 0
DWIDTH 5 0
BBX 5 8 0 0
BITMAP
10
38
00
30
68
F8
C0
70
ENDCHAR

STARTCHAR edieresis
ENCODING 235
SWIDTH 640 0
DWIDTH 5 0
BBX 5 8 0 0
BITMAP
28
28
00
30
68
F8
C0
70
ENDCHAR

STARTCHAR igrave
ENCODING 236
SWIDTH 240 0
DWIDTH 2 0
BBX 3 8 0 0
BITMAP
C0
60
00
40
40
C0
80
80
ENDCHAR

STARTCHAR iacute
ENCODING 237
SWIDTH 240 0
DWIDTH 2 0
BBX 4 8 0 0
BITMAP
30
60
00
40
40
C0
80
80
ENDCHAR

STARTCHAR icircumflex
ENCODING 238
SWIDTH 240 0
DWIDTH 2 0
BBX 3 8 0 0
BITMAP
40
E0
00
40
40
C0
80
80
ENDCHAR

STARTCHAR idieresis
ENCODING 239
SWIDTH 240 0
DWIDTH 2 0
BBX 3 8 0 0
BITMAP
A0
A0
00
40
40
C0
80
80
ENDCHAR

STARTCHAR eth
ENCODING 240
SWIDTH 640 0
DWIDTH 6 0
BBX 6 8 0 0
BITMAP
64
38
58
38
6C
CC
D8
70
ENDCHAR

STARTCHAR ntilde
ENCODING 241
SWIDTH 600 0
DWIDTH 5 0
BBX 5 8 0 0
BITMAP
28
70
00
58
78
C8
D8
D0
ENDCHAR

STARTCHAR ograve
ENCODING 242
SWIDTH 640 0
DWIDTH 6 0
BBX 6 8 0 0
BITMAP
30
18
00
38
6C
CC
D8
70
ENDCHAR

STARTCHAR oacute
ENCODING 243
SWIDTH 640 0
DWIDTH 6 0
BBX 6 8 0 0
BITMAP
0C
18
00
38
6C
CC
D8
70
ENDCHAR

STARTCHAR ocircumflex
ENCODING 244
SWIDTH 640 0
DWIDTH 6 0
BBX 6 8 0 0
BITMAP
08
1C
00
38
6C
CC
D8
70
ENDCHAR

STARTCHAR otilde
ENCODING 245
SWIDTH 640 0
DWIDTH 6 0
BBX 6 8 0 0
BITMAP
14
38
00
38
6C
CC
D8
70
ENDCHAR

STARTCHAR odieresis
ENCODING 246
SWIDTH 640 0
DWIDTH 6 0
BBX 6 8 0 0
BITMAP
14
14
00
38
6C
CC
D8
70
ENDCHAR

STARTCHAR divide
ENCODING 247
SWIDTH 600 0
DWIDTH 5 0
BBX 4 5 0 0
BITMAP
20
00
F0
00
40
ENDCHAR

STARTCHAR oslash
ENCODING 248
SWIDTH 660 0
DWIDTH 6 0
BBX 6 7 0 -1
BITMAP
04
38
6C
CC
D8
70
80
ENDCHAR

STARTCHAR ugrave
ENCODING 249
SWIDTH 600 0
DWIDTH 5 0
BBX 6 8 0 0
BITMAP
30
18
00
6C
6C
D8
D0
70
ENDCHAR

STARTCHAR uacute
ENCODING 250
SWIDTH 600 0
DWIDTH 5 0
BBX 6 8 0 0
BITMAP
0C
18
00
6C
6C
D8
D0
70
ENDCHAR

STARTCHAR ucircumflex
ENCODING 251
SWIDTH 600 0
DWIDTH 5 0
BBX 6 8 0 0
BITMAP
10
38
00
6C
6C
D8
D0
70
ENDCHAR

STARTCHAR udieresis
ENCODING 252
SWIDTH 600 0
DWIDTH 5 0
BBX 6 8 0 0
BITMAP
28
28
00
6C
6C
D8
D0
70
ENDCHAR

STARTCHAR yacute
ENCODING 253
SWIDTH 580 0
DWIDTH 5 0
BBX 5 10 0 -2
BITMAP
18
30
00
D8
D8
D0
60
60
40
80
ENDCHAR

STARTCHAR thorn
ENCODING 254
SWIDTH 660 0
DWIDTH 6 0
BBX 7 8 -1 -2
BITMAP
20
2C
36
66
6C
F8
C0
C0
ENDCHAR

STARTCHAR ydieresis
ENCODING 255
SWIDTH 580 0
DWIDTH 5 0
BBX 5 10 0 -2
BITMAP
50
50
00
D8
D8
D0
60
60
40
80
ENDCHAR
ENDFONT
